<svg id="line_color" height="512" viewBox="0 0 74 74" width="512" xmlns="http://www.w3.org/2000/svg" data-name="line color"><path d="m34.239 10.715a4.316 4.316 0 0 1 8.577 0h3.033a7.339 7.339 0 0 0 -14.643 0z" fill="#eeefee"/><path d="m45.849 11.215h-3.034a.5.5 0 0 1 -.5-.441 3.816 3.816 0 0 0 -7.583 0 .5.5 0 0 1 -.5.441h-3.026a.5.5 0 0 1 -.5-.535 7.839 7.839 0 0 1 15.641 0 .5.5 0 0 1 -.5.535zm-2.61-1h2.053a6.839 6.839 0 0 0 -13.529 0h2.053a4.814 4.814 0 0 1 9.423 0z" fill="#323c6b"/><path d="m62.231 21.511-4.224 44.734a4.336 4.336 0 0 1 -4.315 3.928h-30.333a4.324 4.324 0 0 1 -4.3-3.928l-4.24-44.734" fill="#eeefee"/><path d="m58.477 21.511-3.942 41.732a4.335 4.335 0 0 1 -4.314 3.928h-30.333a4.326 4.326 0 0 1 -.657-.062 4.321 4.321 0 0 0 4.128 3.064h30.333a4.336 4.336 0 0 0 4.315-3.928l4.224-44.734z" fill="#e1e6e9"/><rect fill="#bbbbcd" height="10.733" rx="2.785" width="55.599" x="10.728" y="10.778"/><path d="m63.542 22.011h-50.029a3.288 3.288 0 0 1 -3.285-3.285v-5.163a3.288 3.288 0 0 1 3.285-3.285h50.029a3.288 3.288 0 0 1 3.285 3.285v5.163a3.288 3.288 0 0 1 -3.285 3.285zm-50.029-10.733a2.287 2.287 0 0 0 -2.285 2.285v5.163a2.287 2.287 0 0 0 2.285 2.285h50.029a2.288 2.288 0 0 0 2.285-2.285v-5.163a2.288 2.288 0 0 0 -2.285-2.285z" fill="#323c6b"/><path d="m29.076 62.78a1.5 1.5 0 0 1 -1.493-1.38l-2.683-31.873a1.5 1.5 0 0 1 2.991-.244l2.679 31.875a1.5 1.5 0 0 1 -1.37 1.617c-.042.003-.083.005-.124.005z" fill="#bbbbcd"/><path d="m29.076 63.28a2.01 2.01 0 0 1 -1.992-1.838l-2.679-31.873a2 2 0 1 1 3.987-.326l2.679 31.873a2 2 0 0 1 -1.831 2.157c-.054.005-.11.007-.164.007zm-2.667-34.88c-.03 0-.059 0-.089 0a1 1 0 0 0 -.918 1.079l2.679 31.881a1 1 0 0 0 1 .92h.083a1 1 0 0 0 .915-1.078l-2.679-31.877a1 1 0 0 0 -.354-.689.977.977 0 0 0 -.637-.236z" fill="#323c6b"/><path d="m38.525 62.78a1.5 1.5 0 0 1 -1.5-1.5v-31.875a1.5 1.5 0 0 1 3 0v31.875a1.5 1.5 0 0 1 -1.5 1.5z" fill="#bbbbcd"/><path d="m38.525 63.28a2 2 0 0 1 -2-2v-31.875a2 2 0 0 1 4 0v31.875a2 2 0 0 1 -2 2zm0-34.875a1 1 0 0 0 -1 1v31.875a1 1 0 0 0 2 0v-31.875a1 1 0 0 0 -1-1z" fill="#323c6b"/><path d="m47.974 62.78c-.04 0-.082 0-.123-.005a1.5 1.5 0 0 1 -1.373-1.617l2.679-31.875a1.5 1.5 0 0 1 2.99.244l-2.679 31.873a1.5 1.5 0 0 1 -1.494 1.38z" fill="#bbbbcd"/><g fill="#323c6b"><path d="m47.974 63.28c-.054 0-.109 0-.164-.007a2 2 0 0 1 -1.831-2.156l2.68-31.876a2 2 0 0 1 3.987.327l-2.68 31.876a2.01 2.01 0 0 1 -1.992 1.836zm2.668-34.88a.979.979 0 0 0 -.635.231 1 1 0 0 0 -.352.689l-2.679 31.88a1 1 0 0 0 .915 1.076h.083a1 1 0 0 0 1-.919l2.68-31.876a1 1 0 0 0 -.916-1.076c-.038.001-.066-.005-.096-.005z"/><path d="m63.093 44.257h-.045a.5.5 0 0 1 -.453-.543l.083-.917a.5.5 0 1 1 1 .09l-.083.917a.5.5 0 0 1 -.502.453z"/><path d="m61.756 58.59h-.045a.5.5 0 0 1 -.453-.543l1.017-11.247a.5.5 0 1 1 1 .09l-1.017 11.25a.5.5 0 0 1 -.502.45z"/><path d="m7.728 12.941a.5.5 0 0 1 -.5-.5 5.169 5.169 0 0 1 5.163-5.163h3.386a.5.5 0 1 1 0 1h-3.386a4.168 4.168 0 0 0 -4.163 4.163.5.5 0 0 1 -.5.5z"/><path d="m19.652 8.278h-.833a.5.5 0 1 1 0-1h.833a.5.5 0 0 1 0 1z"/></g><path d="m45.556 18.573h-11.9a.8.8 0 1 1 0-1.608h11.9a.8.8 0 0 1 0 1.608z" fill="#fff"/><path d="m49.973 18.573h-.856a.8.8 0 0 1 0-1.608h.856a.8.8 0 1 1 0 1.608z" fill="#fff"/><path d="m53.692 70.673h-30.333a4.8 4.8 0 0 1 -4.8-4.382l-4.237-44.732a.5.5 0 0 1 .45-.545.492.492 0 0 1 .545.45l4.238 44.736a3.806 3.806 0 0 0 3.8 3.475h30.337a3.83 3.83 0 0 0 3.817-3.475l4.225-44.732a.5.5 0 0 1 .995.094l-4.229 44.73a4.826 4.826 0 0 1 -4.808 4.381z" fill="#323c6b"/></svg>